<?xml version="1.0" standalone="no"?>
<!DOCTYPE svg PUBLIC "-//W3C//DTD SVG 20010904//EN"
 "http://www.w3.org/TR/2001/REC-SVG-20010904/DTD/svg10.dtd">
<svg version="1.0" xmlns="http://www.w3.org/2000/svg"
 width="300.000000pt" height="300.000000pt" viewBox="0 0 300.000000 300.000000"
 preserveAspectRatio="xMidYMid meet">
<metadata>
Created by potrace 1.10, written by Peter Selinger 2001-2011
</metadata>
<g transform="translate(0.000000,300.000000) scale(0.100000,-0.100000)"
fill="#000000" stroke="none">
<path d="M1693 2683 c-42 -8 -24 -18 25 -14 36 3 42 6 27 12 -11 4 -22 7 -25
7 -3 0 -15 -3 -27 -5z"/>
<path d="M1795 2680 c-23 -5 -13 -8 40 -11 39 -3 79 -9 90 -13 18 -8 18 -7 5
6 -17 18 -90 27 -135 18z"/>
<path d="M1236 2293 c-3 -3 -6 -24 -6 -45 0 -32 3 -39 18 -36 9 2 15 11 13 19
-2 8 -3 24 -3 37 -1 24 -11 36 -22 25z"/>
<path d="M1506 2285 c-19 -14 -17 -15 20 -16 46 -1 52 -3 79 -13 11 -4 50 -19
86 -32 l67 -25 6 -62 c8 -65 30 -190 48 -267 5 -25 12 -61 14 -80 8 -68 40
-174 48 -155 4 10 2 23 -4 29 -5 5 -10 22 -10 38 0 15 -12 92 -26 170 -49 273
-55 313 -58 343 -2 26 -7 30 -37 33 -19 2 -39 7 -44 12 -6 5 -34 12 -63 16
-28 3 -52 10 -52 15 0 14 -53 10 -74 -6z"/>
<path d="M2215 2256 c-13 -20 -14 -30 -3 -70 7 -25 16 -46 20 -46 4 0 10 22
14 50 4 27 13 55 20 61 21 17 17 29 -11 29 -15 0 -31 -9 -40 -24z"/>
<path d="M1802 2258 c3 -7 19 -13 36 -14 75 -4 112 -54 118 -161 3 -43 7 -88
10 -100 5 -28 45 -56 68 -47 22 8 20 24 -3 24 -31 0 -40 22 -42 107 -2 99 -23
151 -71 181 -39 24 -123 31 -116 10z"/>
<path d="M2360 2251 c0 -15 -32 -22 -47 -10 -7 7 -16 10 -19 7 -2 -3 7 -13 21
-22 23 -15 26 -15 45 4 22 22 25 30 10 30 -5 0 -10 -4 -10 -9z"/>
<path d="M1285 2230 c-12 -20 13 -38 118 -84 45 -19 67 -20 67 -3 0 12 -51 39
-98 52 -12 4 -27 15 -32 26 -11 20 -45 26 -55 9z"/>
<path d="M852 2220 c-36 -10 -131 -73 -135 -92 -7 -24 -6 -24 37 17 21 19 46
35 57 35 11 0 19 7 19 16 0 14 21 15 175 12 163 -3 204 2 155 17 -22 7 -278 3
-308 -5z"/>
<path d="M2062 2214 c-12 -8 -22 -25 -22 -37 0 -22 1 -22 19 2 23 30 48 23 62
-17 10 -29 54 -59 63 -43 3 4 -4 15 -15 24 -11 10 -19 29 -19 46 0 42 -45 55
-88 25z"/>
<path d="M2387 2199 c-44 -17 -21 -31 39 -23 71 8 144 -2 144 -22 0 -8 4 -13
9 -10 27 17 120 -146 121 -211 0 -18 5 -33 10 -33 6 0 10 -41 10 -102 0 -79
-5 -112 -19 -143 -18 -39 -90 -119 -99 -110 -2 2 3 11 12 20 9 9 16 23 16 31
0 8 3 14 8 14 11 0 34 58 29 72 -3 7 -13 -6 -24 -29 -21 -46 -83 -118 -134
-153 -19 -14 -27 -26 -20 -28 7 -2 30 13 52 34 21 21 42 35 45 31 4 -3 -13
-24 -37 -46 -47 -42 -48 -66 -2 -36 15 10 57 48 93 84 85 85 104 140 97 281
-5 115 -21 188 -52 250 -29 58 -72 110 -90 110 -7 0 -15 6 -17 12 -6 16 -153
21 -191 7z"/>
<path d="M2313 2185 c-16 -8 -19 -15 -12 -28 14 -25 36 -21 41 8 6 31 0 35
-29 20z"/>
<path d="M1504 2138 c-9 -14 11 -25 56 -32 31 -5 48 -17 88 -66 48 -57 75
-120 97 -227 9 -45 25 -51 25 -10 0 94 -52 217 -118 280 -32 30 -139 70 -148
55z"/>
<path d="M2319 2087 c-11 -8 -14 -18 -8 -32 4 -11 8 -16 8 -11 1 5 7 3 15 -3
11 -10 25 -9 61 3 62 22 89 20 120 -6 32 -29 57 -118 60 -218 3 -104 13 -144
31 -129 11 9 13 31 9 98 -14 230 -58 321 -149 305 -22 -3 -51 -14 -65 -22 -22
-15 -25 -15 -41 6 -21 25 -20 25 -41 9z"/>
<path d="M2270 1995 c0 -59 9 -95 22 -95 13 0 3 119 -11 133 -8 8 -11 -3 -11
-38z"/>
<path d="M573 1977 c-48 -70 -58 -165 -23 -210 12 -15 28 -27 36 -27 18 0 18
9 -2 31 -9 10 -20 39 -25 65 -8 40 -5 54 14 93 12 25 31 54 42 63 20 17 20 17
0 18 -12 0 -29 -14 -42 -33z"/>
<path d="M2336 1898 c3 -18 7 -44 11 -58 3 -14 5 -33 4 -42 -1 -10 3 -18 8
-18 6 0 11 16 11 35 0 19 -5 35 -11 35 -5 0 -8 4 -5 9 8 12 -4 71 -14 71 -5 0
-6 -15 -4 -32z"/>
<path d="M875 1728 c-22 -11 -42 -24 -45 -28 -3 -4 -29 -19 -58 -33 -46 -22
-57 -24 -85 -15 -17 7 -41 20 -51 30 -22 20 -40 11 -30 -15 3 -10 17 -17 30
-17 24 0 24 -1 18 -67 -9 -92 -9 -92 -17 -99 -4 -4 -7 -30 -6 -58 l1 -51 14
70 c8 39 16 81 18 95 2 14 6 33 10 43 3 9 8 24 11 33 3 10 15 15 32 14 44 -4
93 11 103 30 14 25 95 53 133 46 18 -4 58 -10 90 -14 97 -13 99 -28 48 -300
-23 -120 -41 -229 -40 -243 l0 -24 10 25 c6 14 14 45 19 70 5 25 20 98 34 164
14 65 26 134 26 152 0 32 16 45 34 27 4 -4 26 -13 49 -20 43 -13 67 -5 67 23
0 13 -20 13 -66 -1 -17 -5 -49 33 -72 87 -24 55 -44 68 -110 68 -27 0 -63 7
-78 15 -37 19 -41 19 -89 -7z"/>
<path d="M350 1721 c-76 -16 -120 -60 -155 -156 -21 -58 -26 -89 -26 -178 -2
-107 -1 -108 41 -194 31 -63 61 -106 109 -155 75 -77 104 -88 94 -35 -8 43
-22 59 -44 52 -14 -5 -19 -1 -19 12 0 10 -15 32 -34 50 -19 17 -32 34 -29 37
4 3 -2 15 -13 27 -10 11 -23 35 -29 52 -5 18 -14 30 -19 29 -17 -7 -26 24 -26
96 0 115 18 212 48 255 38 56 71 70 187 74 55 2 102 6 104 9 21 21 -122 40
-189 25z"/>
<path d="M2521 1648 c-51 -63 -59 -78 -42 -78 21 0 110 124 98 136 -2 3 -27
-24 -56 -58z"/>
<path d="M566 1691 c-8 -13 4 -42 15 -35 12 7 12 44 0 44 -6 0 -12 -4 -15 -9z"/>
<path d="M1529 1653 c-15 -7 -32 -20 -40 -29 -11 -13 -10 -17 4 -25 9 -6 17
-16 17 -23 0 -8 7 -16 15 -20 20 -7 15 -116 -7 -166 -8 -19 -20 -66 -27 -105
-6 -38 -20 -110 -31 -160 -11 -49 -24 -108 -29 -130 -5 -22 -19 -83 -30 -135
-12 -52 -26 -124 -31 -160 -6 -36 -15 -79 -21 -97 -7 -23 -7 -38 1 -53 11 -20
9 -21 -27 -15 -21 3 -48 8 -60 11 -15 3 -29 -3 -40 -16 -22 -25 -31 -25 -59 1
-25 23 -72 38 -159 48 -53 6 -62 5 -77 -13 -35 -42 -11 -72 27 -36 20 19 32
22 67 18 45 -5 94 -25 139 -54 25 -16 29 -16 63 0 20 10 47 16 59 14 18 -2 22
-9 21 -35 -1 -21 3 -33 11 -33 16 0 38 26 41 48 1 10 9 44 18 77 9 32 16 74
16 91 0 42 23 154 75 369 9 33 24 112 35 175 10 64 23 135 28 158 6 23 7 42 3
42 -3 0 -1 4 5 8 6 4 15 34 20 67 9 59 10 60 41 60 18 0 41 7 51 16 10 8 27
19 37 23 14 6 16 10 7 13 -7 3 -24 -2 -37 -11 -32 -21 -111 -21 -119 0 -10 27
-7 43 15 63 26 24 13 32 -22 14z"/>
<path d="M1312 1608 c-19 -19 -14 -28 13 -28 23 0 51 -31 39 -43 -10 -10 -40
-178 -32 -183 4 -3 10 5 12 18 3 13 10 48 16 78 6 30 14 62 17 70 4 8 7 20 7
25 1 6 14 12 31 13 27 3 44 16 45 33 0 4 -19 4 -43 2 -31 -4 -46 -1 -56 11
-16 19 -33 20 -49 4z"/>
<path d="M344 1578 c-23 -22 -37 -45 -40 -68 -3 -19 -10 -40 -15 -46 -5 -6 -9
-56 -8 -110 2 -85 5 -101 23 -119 12 -12 27 -33 34 -47 23 -43 63 -80 109
-100 24 -11 46 -25 49 -32 3 -7 -4 -29 -16 -48 -11 -20 -20 -48 -19 -64 1 -16
-3 -56 -10 -89 -7 -33 -19 -90 -27 -127 -18 -85 -18 -98 1 -98 10 0 15 10 15
29 0 17 4 33 10 36 5 3 10 19 10 35 0 16 5 32 10 35 6 4 8 15 5 25 -7 24 13
99 34 123 13 16 13 19 -2 34 -15 15 -14 18 5 45 18 26 19 33 8 53 -11 20 -10
28 3 48 8 13 18 39 20 58 8 48 16 115 22 173 3 27 8 52 10 56 3 5 11 40 19 80
11 60 11 74 0 85 -8 7 -14 23 -14 34 0 22 -26 29 -32 10 -3 -8 -18 -6 -51 5
-75 25 -112 21 -153 -16z m141 -19 c22 -6 51 -11 65 -12 22 -2 25 -7 23 -37 0
-19 -6 -64 -13 -100 -19 -109 -28 -162 -38 -228 -15 -91 -23 -97 -81 -58 -26
17 -61 51 -77 76 -28 43 -29 50 -29 160 1 99 4 121 23 157 28 53 54 61 127 42z"/>
<path d="M2383 1581 c0 -21 -6 -39 -17 -47 -26 -19 -13 -53 18 -47 28 6 42 59
21 83 -7 8 -15 22 -18 30 -2 8 -5 0 -4 -19z"/>
<path d="M2380 1443 c0 -5 7 -17 15 -27 8 -11 15 -35 15 -53 0 -18 9 -55 20
-83 11 -28 20 -74 20 -104 0 -40 4 -55 16 -60 12 -4 14 -14 9 -36 -5 -23 -3
-30 9 -30 19 0 29 17 19 33 -4 6 -8 23 -9 37 -2 39 -31 170 -48 219 -15 41
-15 45 1 57 10 7 23 14 29 14 7 0 14 6 17 13 4 10 -3 12 -23 9 -15 -2 -31 1
-34 7 -8 12 -56 15 -56 4z"/>
<path d="M1899 1398 c-2 -19 3 -60 16 -125 11 -61 27 -53 19 10 -10 87 -31
156 -35 115z"/>
<path d="M611 1347 c0 -16 -6 -37 -12 -48 -5 -11 -9 -39 -7 -62 3 -39 4 -38
16 30 8 40 12 80 9 90 -3 11 -5 8 -6 -10z"/>
<path d="M2380 1241 c0 -29 26 -91 39 -91 5 0 2 23 -8 50 -21 58 -31 72 -31
41z"/>
<path d="M1941 1158 c0 -37 4 -70 9 -73 6 -3 10 -16 10 -28 1 -19 2 -20 10 -6
6 11 5 35 -4 70 -8 30 -16 65 -19 79 -2 14 -5 -5 -6 -42z"/>
<path d="M1540 1091 c0 -62 16 -109 32 -93 12 12 -10 142 -24 142 -4 0 -8 -22
-8 -49z"/>
<path d="M2340 1095 c-14 -8 -33 -14 -42 -15 -11 0 -18 -8 -18 -18 0 -10 -5
-23 -11 -29 -6 -6 -8 -16 -4 -23 4 -7 19 1 42 25 28 29 41 35 66 33 20 -2 33
-9 35 -20 4 -22 -30 -55 -60 -60 -12 -2 -24 -11 -26 -20 -3 -15 4 -18 46 -18
73 0 87 7 59 31 l-22 19 22 6 c28 8 39 35 18 46 -8 5 -15 18 -15 28 0 11 -6
20 -12 20 -7 0 -22 2 -33 5 -11 3 -31 -2 -45 -10z"/>
<path d="M2091 1041 c-53 -18 -75 -37 -64 -54 2 -4 15 -2 27 6 36 24 129 41
153 28 16 -8 24 -7 33 4 10 12 7 16 -15 25 -38 14 -72 12 -134 -9z"/>
<path d="M1955 1021 c-3 -6 -25 -11 -48 -11 -62 -1 -129 -19 -149 -40 -10 -10
-26 -23 -35 -29 -10 -5 -14 -13 -10 -17 4 -4 36 7 70 24 69 35 139 43 173 17
19 -14 54 -20 54 -9 0 16 -49 74 -55 65z"/>
<path d="M2500 978 c-2 -78 -143 -138 -455 -193 -143 -25 -413 -36 -401 -16 4
5 -3 7 -14 4 -25 -7 -70 31 -70 58 0 9 -7 19 -15 23 -21 8 -21 -67 0 -88 37
-37 178 -53 328 -37 276 30 468 75 597 141 46 24 62 49 58 92 -4 37 -28 51
-28 16z"/>
<path d="M1593 978 c-38 -18 -28 -83 14 -99 19 -7 24 -15 20 -29 -5 -18 0 -20
43 -20 52 0 74 14 39 25 -11 4 -22 5 -25 2 -8 -8 -74 62 -74 79 0 14 7 16 45
12 38 -5 45 -3 45 12 0 28 -64 39 -107 18z"/>
<path d="M2239 966 c-14 -7 -49 -15 -78 -18 -29 -3 -58 -11 -64 -18 -10 -9 -2
-11 38 -6 28 4 66 7 87 7 38 0 68 23 52 39 -6 6 -19 4 -35 -4z"/>
<path d="M1012 949 c-12 -30 -32 -138 -31 -165 1 -32 30 56 39 121 10 64 6 82
-8 44z"/>
<path d="M1467 945 c-18 -57 -37 -182 -36 -237 l1 -63 9 50 c5 28 16 91 25
140 16 88 17 158 1 110z"/>
<path d="M1929 909 c-7 -4 -44 -8 -82 -8 -39 0 -75 -5 -81 -11 -12 -12 -7 -12
79 -10 131 4 215 16 215 31 0 10 -114 9 -131 -2z"/>
<path d="M526 846 c-11 -37 -23 -69 -27 -71 -4 -3 -5 -14 -2 -25 9 -32 20 -15
38 59 22 93 15 123 -9 37z"/>
<path d="M964 723 c-3 -16 -10 -41 -15 -57 -10 -31 -5 -46 10 -30 12 13 30
114 20 114 -5 0 -11 -12 -15 -27z"/>
<path d="M503 680 c-13 -5 -23 -18 -23 -29 0 -10 -8 -22 -17 -25 -15 -6 -13
-10 12 -32 20 -17 26 -27 18 -30 -7 -3 -13 -9 -13 -13 0 -12 116 -35 130 -26
6 4 22 -1 36 -10 20 -13 28 -14 40 -4 12 10 12 14 -6 26 -11 8 -28 12 -38 9
-19 -6 -73 18 -115 50 -31 25 -20 54 22 54 21 0 36 -9 54 -34 l26 -33 58 9
c66 10 114 5 160 -19 18 -10 35 -14 39 -10 13 12 -17 36 -67 52 -45 15 -82 16
-154 3 -13 -2 -23 5 -29 18 -15 34 -94 60 -133 44z"/>
<path d="M397 582 c-67 -74 54 -154 343 -227 261 -66 572 -84 630 -37 26 22
40 92 17 92 -8 0 -18 -11 -21 -25 -12 -46 -43 -57 -170 -56 -222 2 -525 64
-698 143 -70 32 -93 62 -81 107 7 26 1 26 -20 3z"/>
<path d="M1402 548 c-7 -7 -12 -24 -12 -39 0 -15 -6 -29 -12 -32 -10 -4 -10
-7 0 -18 18 -19 29 -2 35 54 2 26 4 47 3 47 -1 0 -7 -5 -14 -12z"/>
<path d="M860 484 c0 -7 72 -22 86 -17 27 10 13 18 -36 20 -28 0 -50 -1 -50
-3z"/>
<path d="M919 419 c-10 -6 -5 -9 16 -9 17 0 48 -3 70 -7 22 -3 37 -2 32 3 -4
4 -18 9 -30 11 -12 2 -34 5 -48 7 -15 2 -33 0 -40 -5z"/>
<path d="M1227 420 c-37 -7 -54 -16 -46 -24 3 -4 110 -9 132 -7 4 1 -2 10 -13
21 -11 11 -23 19 -27 19 -5 -1 -25 -5 -46 -9z"/>
</g>
</svg>
